<?xml version="1.0" encoding="UTF-8"?>
<svg xmlns="http://www.w3.org/2000/svg" xmlns:xlink="http://www.w3.org/1999/xlink" width="80px" height="57px" viewBox="0 0 80 57" version="1.1">
<defs>
<filter id="alpha" filterUnits="objectBoundingBox" x="0%" y="0%" width="100%" height="100%">
  <feColorMatrix type="matrix" in="SourceGraphic" values="0 0 0 0 1 0 0 0 0 1 0 0 0 0 1 0 0 0 1 0"/>
</filter>
<mask id="mask0">
  <g filter="url(#alpha)">
<rect x="0" y="0" width="80" height="57" style="fill:rgb(0%,0%,0%);fill-opacity:0.996078;stroke:none;"/>
  </g>
</mask>
<clipPath id="clip1">
  <rect x="0" y="0" width="80" height="57"/>
</clipPath>
<g id="surface5" clip-path="url(#clip1)">
<path style=" stroke:none;fill-rule:evenodd;fill:rgb(9.019608%,5.098039%,47.058824%);fill-opacity:1;" d="M 71.398438 30.707031 C 73.164062 30.78125 74.898438 31.050781 76.601562 31.511719 C 79.082031 33.25 79.613281 35.457031 78.199219 38.132812 C 76.914062 38 75.648438 37.664062 74.398438 37.128906 C 73.269531 37.351562 72.136719 37.554688 71 37.730469 C 72.917969 38.5625 73.054688 39.632812 71.398438 40.945312 C 69.210938 41.972656 66.945312 42.238281 64.601562 41.746094 C 62.015625 42.976562 59.484375 44.3125 57 45.761719 C 48.59375 54.96875 39.128906 56.308594 28.601562 49.773438 C 25.710938 49.753906 23.179688 48.816406 21 46.964844 C 19.535156 46.695312 18.066406 46.695312 16.601562 46.964844 C 14.359375 48.476562 12.027344 48.675781 9.601562 47.566406 C 8.878906 46.480469 8.878906 45.40625 9.601562 44.355469 C 10.847656 43.859375 12.117188 43.390625 13.398438 42.949219 C 14.007812 42.066406 14.539062 41.128906 15 40.140625 C 17.1875 38.957031 18.523438 39.558594 19 41.945312 C 20.324219 41.960938 21.390625 41.429688 22.199219 40.339844 C 21.71875 39.304688 21.183594 38.300781 20.601562 37.332031 C 19.785156 36.925781 18.917969 36.726562 18 36.730469 C 15.421875 37.292969 12.824219 37.691406 10.199219 37.933594 C 4.554688 37.910156 1.355469 35.101562 0.601562 29.503906 C 0.75 28.71875 1.015625 27.980469 1.398438 27.296875 C 8.734375 27.160156 16.066406 27.027344 23.398438 26.894531 C 22.3125 24.261719 21.582031 21.515625 21.199219 18.664062 C 20.015625 17.074219 18.679688 15.601562 17.199219 14.25 C 15.269531 11.558594 15.335938 8.949219 17.398438 6.421875 C 19.792969 5.371094 22.257812 5.167969 24.800781 5.820312 C 25.554688 5.039062 26.085938 4.101562 26.398438 3.011719 C 28.070312 1.527344 30.003906 1.058594 32.199219 1.605469 C 36.777344 3.066406 40.84375 5.40625 44.398438 8.628906 C 45.878906 10.59375 46.746094 12.800781 47 15.253906 C 46.515625 17.382812 46.113281 19.523438 45.800781 21.675781 C 45.433594 24.761719 46.5 25.566406 49 24.085938 C 52.09375 21.335938 55.695312 20.398438 59.800781 21.273438 C 64.828125 22.640625 67.628906 25.921875 68.199219 31.109375 C 69.25 30.871094 70.316406 30.738281 71.398438 30.707031 Z M 71.398438 30.707031 "/>
</g>
<mask id="mask1">
  <g filter="url(#alpha)">
<rect x="0" y="0" width="80" height="57" style="fill:rgb(0%,0%,0%);fill-opacity:0.411765;stroke:none;"/>
  </g>
</mask>
<clipPath id="clip2">
  <rect x="0" y="0" width="80" height="57"/>
</clipPath>
<g id="surface8" clip-path="url(#clip2)">
<path style=" stroke:none;fill-rule:evenodd;fill:rgb(28.627451%,14.901961%,38.431373%);fill-opacity:1;" d="M 71.398438 30.707031 C 73.234375 30.148438 74.96875 30.417969 76.601562 31.511719 C 74.898438 31.050781 73.164062 30.78125 71.398438 30.707031 Z M 71.398438 30.707031 "/>
</g>
<mask id="mask2">
  <g filter="url(#alpha)">
<rect x="0" y="0" width="80" height="57" style="fill:rgb(0%,0%,0%);fill-opacity:0.996078;stroke:none;"/>
  </g>
</mask>
<clipPath id="clip3">
  <rect x="0" y="0" width="80" height="57"/>
</clipPath>
<g id="surface11" clip-path="url(#clip3)">
<path style=" stroke:none;fill-rule:evenodd;fill:rgb(81.960784%,81.960784%,87.058824%);fill-opacity:1;" d="M 25.398438 45.160156 C 24.832031 45.882812 24.03125 46.152344 23 45.960938 C 21.414062 44.878906 21.414062 43.738281 23 42.550781 C 24.355469 42.777344 25.15625 43.644531 25.398438 45.160156 Z M 25.398438 45.160156 "/>
</g>
<mask id="mask3">
  <g filter="url(#alpha)">
<rect x="0" y="0" width="80" height="57" style="fill:rgb(0%,0%,0%);fill-opacity:0.482353;stroke:none;"/>
  </g>
</mask>
<clipPath id="clip4">
  <rect x="0" y="0" width="80" height="57"/>
</clipPath>
<g id="surface14" clip-path="url(#clip4)">
<path style=" stroke:none;fill-rule:evenodd;fill:rgb(41.176471%,42.745098%,66.666667%);fill-opacity:1;" d="M 25.398438 45.160156 C 26.386719 45.832031 26.917969 46.632812 27 47.566406 C 25.492188 47.378906 24.15625 46.84375 23 45.960938 C 24.03125 46.152344 24.832031 45.882812 25.398438 45.160156 Z M 25.398438 45.160156 "/>
</g>
</defs>
<g id="surface1">
<use xlink:href="#surface5" mask="url(#mask0)"/>
<path style=" stroke:none;fill-rule:evenodd;fill:rgb(89.019608%,89.411765%,91.372549%);fill-opacity:1;" d="M 25 7.828125 C 29.792969 8.660156 34.128906 10.535156 38 13.445312 C 38.167969 13.917969 38.433594 14.320312 38.800781 14.652344 C 38.933594 18.128906 39.066406 21.609375 39.199219 25.089844 C 39.515625 26.324219 40.246094 27.195312 41.398438 27.695312 C 43.304688 28.023438 45.167969 27.886719 47 27.296875 C 49.574219 25.648438 52.238281 24.175781 55 22.878906 C 60.179688 22.300781 63.847656 24.375 66 29.101562 C 66.929688 31.949219 66.0625 33.953125 63.398438 35.125 C 63.265625 35.457031 63.132812 35.792969 63 36.125 C 63.175781 36.859375 63.3125 37.59375 63.398438 38.335938 C 63.433594 38.734375 63.300781 39.070312 63 39.339844 C 57.386719 42.757812 51.386719 45.167969 45 46.5625 C 37.195312 47.296875 30.859375 44.554688 26 38.335938 C 25.007812 36.402344 23.609375 34.863281 21.800781 33.71875 C 17.945312 33.949219 14.078125 34.152344 10.199219 34.320312 C 9.453125 34.175781 8.851562 33.773438 8.398438 33.117188 C 7.585938 31.886719 7.121094 30.550781 7 29.101562 C 13.273438 28.96875 19.539062 29.101562 25.800781 29.503906 C 28.472656 32.914062 31.9375 34.1875 36.199219 33.316406 C 35 33.183594 33.800781 33.050781 32.601562 32.914062 C 31.804688 32.765625 31.136719 32.429688 30.601562 31.910156 C 29.097656 30.640625 28.097656 29.035156 27.601562 27.09375 C 26.566406 23.144531 25.898438 19.128906 25.601562 15.054688 C 24.800781 13.714844 24 12.375 23.199219 11.039062 C 22.539062 9.167969 23.140625 8.097656 25 7.828125 Z M 25 7.828125 "/>
<path style=" stroke:none;fill-rule:evenodd;fill:rgb(29.803922%,36.862745%,60.784314%);fill-opacity:1;" d="M 25 7.828125 C 23.140625 8.097656 22.539062 9.167969 23.199219 11.039062 C 24 12.375 24.800781 13.714844 25.601562 15.054688 C 25.898438 19.128906 26.566406 23.144531 27.601562 27.09375 C 28.097656 29.035156 29.097656 30.640625 30.601562 31.910156 C 27.316406 30.417969 25.25 27.875 24.398438 24.285156 C 24.128906 22.25 23.730469 20.242188 23.199219 18.265625 C 21.464844 15.988281 19.734375 13.714844 18 11.441406 C 17.480469 8.175781 18.878906 6.839844 22.199219 7.425781 C 23.210938 7.425781 24.144531 7.5625 25 7.828125 Z M 25 7.828125 "/>
<path style=" stroke:none;fill-rule:evenodd;fill:rgb(69.019608%,76.078431%,83.921569%);fill-opacity:1;" d="M 33.398438 4.214844 C 37.636719 5.59375 41.171875 8 44 11.441406 C 45.304688 13.859375 45.304688 16.269531 44 18.664062 C 43.734375 20.269531 43.734375 21.875 44 23.480469 C 44.480469 24.710938 44.949219 25.914062 45.398438 27.09375 C 43.421875 27.445312 41.753906 26.910156 40.398438 25.488281 C 39.886719 21.78125 39.621094 18.035156 39.601562 14.25 C 39.210938 13.527344 38.746094 12.855469 38.199219 12.242188 C 36.574219 11.164062 34.972656 10.09375 33.398438 9.03125 C 32.867188 7.425781 32.867188 5.820312 33.398438 4.214844 Z M 33.398438 4.214844 "/>
<path style=" stroke:none;fill-rule:evenodd;fill:rgb(20.392157%,28.235294%,52.156863%);fill-opacity:1;" d="M 33.398438 4.214844 C 32.867188 5.820312 32.867188 7.425781 33.398438 9.03125 C 31.476562 8.632812 29.609375 8.03125 27.800781 7.226562 C 27.125 5.808594 27.390625 4.605469 28.601562 3.613281 C 30.292969 3.242188 31.890625 3.445312 33.398438 4.214844 Z M 33.398438 4.214844 "/>
<path style=" stroke:none;fill-rule:evenodd;fill:rgb(27.058824%,34.901961%,58.431373%);fill-opacity:1;" d="M 7 29.101562 C 7.121094 30.550781 7.585938 31.886719 8.398438 33.117188 C 8.851562 33.773438 9.453125 34.175781 10.199219 34.320312 C 11.046875 35.183594 12.113281 35.585938 13.398438 35.523438 C 12.410156 35.792969 11.34375 35.925781 10.199219 35.925781 C 5.457031 36.117188 3.058594 33.84375 3 29.101562 C 4.332031 29.101562 5.667969 29.101562 7 29.101562 Z M 7 29.101562 "/>
<path style=" stroke:none;fill-rule:evenodd;fill:rgb(8.627451%,5.490196%,48.235294%);fill-opacity:1;" d="M 56.199219 29.503906 C 58.871094 29.234375 59.871094 30.4375 59.199219 33.117188 C 57.789062 34.800781 56.589844 34.667969 55.601562 32.714844 C 55.3125 31.546875 55.511719 30.476562 56.199219 29.503906 Z M 56.199219 29.503906 "/>
<path style=" stroke:none;fill-rule:evenodd;fill:rgb(85.098039%,84.705882%,89.803922%);fill-opacity:1;" d="M 57.398438 30.304688 C 57.800781 30.304688 58.199219 30.304688 58.601562 30.304688 C 58.703125 30.898438 58.570312 31.433594 58.199219 31.910156 C 57.554688 31.582031 57.289062 31.046875 57.398438 30.304688 Z M 57.398438 30.304688 "/>
<use xlink:href="#surface8" mask="url(#mask1)"/>
<path style=" stroke:none;fill-rule:evenodd;fill:rgb(91.764706%,47.058824%,16.470588%);fill-opacity:1;" d="M 71 32.3125 C 73.132812 32.007812 75 32.542969 76.601562 33.917969 C 76.898438 34.414062 77.03125 34.949219 77 35.523438 C 74.515625 35.066406 72.050781 35.199219 69.601562 35.925781 C 68.515625 35.960938 67.515625 35.695312 66.601562 35.125 C 66.367188 37.125 67.167969 38.664062 69 39.738281 C 66.007812 40.214844 64.476562 38.945312 64.398438 35.925781 C 65.53125 35.324219 66.398438 34.453125 67 33.316406 C 68.414062 33.101562 69.75 32.769531 71 32.3125 Z M 71 32.3125 "/>
<path style=" stroke:none;fill-rule:evenodd;fill:rgb(69.019608%,76.862745%,83.921569%);fill-opacity:1;" d="M 63.398438 38.335938 C 64.035156 38.789062 64.167969 39.324219 63.800781 39.941406 C 61.070312 41.242188 58.402344 42.648438 55.800781 44.15625 C 48.386719 52.574219 39.851562 54.046875 30.199219 48.570312 C 26.894531 45.519531 24.5625 41.839844 23.199219 37.53125 C 21.976562 35.480469 20.179688 34.542969 17.800781 34.722656 C 16.265625 34.703125 14.796875 34.972656 13.398438 35.523438 C 12.113281 35.585938 11.046875 35.183594 10.199219 34.320312 C 14.078125 34.152344 17.945312 33.949219 21.800781 33.71875 C 23.609375 34.863281 25.007812 36.402344 26 38.335938 C 30.859375 44.554688 37.195312 47.296875 45 46.5625 C 51.386719 45.167969 57.386719 42.757812 63 39.339844 C 63.300781 39.070312 63.433594 38.734375 63.398438 38.335938 Z M 63.398438 38.335938 "/>
<use xlink:href="#surface11" mask="url(#mask2)"/>
<path style=" stroke:none;fill-rule:evenodd;fill:rgb(91.372549%,49.411765%,20.392157%);fill-opacity:1;" d="M 20.601562 43.953125 C 19.242188 44.605469 17.777344 45.007812 16.199219 45.160156 C 14.585938 46.25 12.855469 46.515625 11 45.960938 C 13.800781 45.632812 15.667969 44.160156 16.601562 41.546875 C 16.769531 42.289062 16.902344 43.027344 17 43.753906 C 18.191406 43.953125 19.394531 44.019531 20.601562 43.953125 Z M 20.601562 43.953125 "/>
<path style=" stroke:none;fill-rule:evenodd;fill:rgb(41.960784%,22.352941%,34.117647%);fill-opacity:1;" d="M 20.601562 43.953125 C 20.960938 44.238281 21.09375 44.640625 21 45.160156 C 19.398438 45.160156 17.800781 45.160156 16.199219 45.160156 C 17.777344 45.007812 19.242188 44.605469 20.601562 43.953125 Z M 20.601562 43.953125 "/>
<use xlink:href="#surface14" mask="url(#mask3)"/>
</g>
</svg>
