
<svg version="1.1" id="Capa_1" xmlns="http://www.w3.org/2000/svg" xmlns:xlink="http://www.w3.org/1999/xlink" x="0px" y="0px"
	 viewBox="0 0 900 120" style="enable-background:new 0 0 900 120;" xml:space="preserve">
<style type="text/css">
	.st0{fill:#FFFFFF;stroke:#1D1D1B;stroke-miterlimit:10;}
</style>
<path class="st0" d="M17.32,94.73c-1.75,6.4-3.49,12.8-5.24,19.2c6.03,0.17,13.36-0.18,21.51-1.75c14.55-2.79,25.77-8.33,33.15-12.8
	c9.3,4.06,30.43,11.7,56.42,6.98c12.34-2.24,22.16-6.61,29.08-10.47c3.6,2.66,15.71,10.9,33.15,10.47
	c16.97-0.42,28.43-8.81,31.99-11.63c4.92,3.65,16.24,11.01,32.57,12.8c18.4,2.02,32.4-4.22,37.8-6.98
	c3.68,3.07,15.24,11.9,32.57,12.8c19.1,0.98,32.45-8.34,36.06-11.05c7.91,3.62,23.31,9.32,43.04,8.14
	c12.67-0.76,22.84-4.09,29.66-6.98c6.91,2.93,20.19,7.46,37.22,6.4c13.81-0.86,24.49-5.06,30.82-8.14c7,3.44,18.63,8.1,33.73,9.31
	c17.41,1.39,31.27-2.46,38.97-5.24c8.12,3.26,21.71,7.55,38.97,7.56c18.91,0.01,33.6-5.12,41.87-8.73c5.75,3.98,14.15,8.63,25,11.05
	c29.25,6.54,53.26-8.16,59.19-12.03c6.68,3.66,20.78,10.21,39.6,10.08c24.4-0.17,41.51-11.45,47.52-15.84
	c8.88,5.25,24.01,12.53,43.92,14.4c9.75,0.92,18.32,0.32,25.2-0.72c-1.92-6.24-3.84-12.48-5.76-18.72c-5.04,0.8-12.32,1.36-20.88,0
	c-10.77-1.71-18.89-5.73-23.76-8.64c15.67-16.53,18.63-39.45,8.64-54.72c-6.3-9.63-19.57-18.98-34.56-16.56
	c-17.46,2.82-25.07,19.64-25.92,21.6c-6.96,16.07-1.6,36.57,13.68,51.12c-3.86,2.44-11.09,6.25-20.88,7.2
	c-15.09,1.47-26.39-4.82-30.24-7.2c8.44-11.46,9.84-25.51,3.6-35.28c-0.83-1.3-6.05-9.18-15.84-10.8
	c-10.4-1.72-19.83,4.64-24.48,11.52c-6.73,9.95-5.73,24.31,2.88,35.28c-1.85,1.96-10.46,10.71-24.48,11.52
	c-15.91,0.92-26.3-9.1-27.91-10.71c3.86-2.94,11.07-9.24,15.71-19.78c1.96-4.45,6.71-15.24,3.49-27.33
	c-3.72-13.94-17.98-29.28-37.22-27.91c-18.18,1.28-30.42,16.72-32.57,30.24c-1.53,9.59,2.07,17.89,4.65,23.84
	c4.32,9.96,10.49,16.62,14.54,20.36c-6.06,1.51-14.69,2.95-25,2.33c-7.68-0.47-14.19-1.95-19.2-3.49c2.22-1.86,7.52-6.81,8.73-14.54
	c1.84-11.74-6.23-26.69-19.78-27.91c-13.85-1.26-25.1,12.6-24.42,25c0.48,8.82,6.86,14.68,8.73,16.29c-4.38,2.02-13.38,5.46-25,4.65
	c-8.58-0.59-15.22-3.25-19.2-5.24c4.16-4.39,11.07-12.9,14.59-25.48c2.35-8.4,6.78-24.25-2.66-36.57
	c-9.95-12.98-27.7-12.11-29.92-11.97c-2.76,0.18-19.04,1.55-27.26,14.63c-8.13,12.95-2.53,28.06,0.46,36.12
	c4.32,11.63,11.39,19.28,15.71,23.26c-5.28,1.51-12.89,3.07-22.1,2.91c-9.87-0.17-17.88-2.23-23.26-4.07
	c8.58-6.47,12.47-17.31,9.89-27.33c-2.9-11.25-13.52-19.79-25.59-19.2c-13.37,0.66-23.34,12.3-23.84,24.42
	c-0.52,12.56,9.33,20.61,10.47,21.52c-4.83,1.74-11.35,3.51-19.2,4.07c-12.04,0.87-21.83-1.49-27.91-3.49
	c4.22-3.8,11.64-11.58,15.64-23.65c2.11-6.36,8.44-25.49-3.32-39.89c-6.86-8.39-18.08-12.99-29.25-11.97
	c-14.02,1.28-24.83,11.14-29.01,22c-4.87,12.63,0.07,24.4,4.07,33.73c4.04,9.42,9.43,16.15,13.38,20.36
	c-4.64,1.33-11.71,2.77-20.36,2.33c-8.21-0.42-14.8-2.38-19.2-4.07c1.04-1.01,11.8-11.68,9.31-26.17
	c-2.07-12-12.83-24.34-26.17-23.26c-12.81,1.03-21.03,13.86-22.1,25c-1.41,14.76,9.9,24.63,11.05,25.59
	c-3.55,1.86-12.61,5.97-24.42,4.65c-8.49-0.95-14.72-4.28-18.03-6.4c3.69-2.47,11.27-8.3,15.77-18.59
	c5.07-11.58,6.09-28.55-3.99-41.22c-1.51-1.9-10.74-13.5-25.26-13.3c-15.14,0.21-26.46,13.13-30.14,24.83
	c-4.01,12.75,1.04,24.16,3.49,29.66c4.32,9.7,10.66,15.92,14.54,19.2c-2.62,1.63-9.08,5.18-18.03,5.24
	c-8.52,0.05-14.76-3.09-17.45-4.65c0.95-1.15,10.54-13.11,6.4-27.91c-2.68-9.57-11.15-20.53-23.26-20.94
	c-13.26-0.44-23.55,12.01-25.59,23.84c-2.31,13.32,6.23,23.48,7.56,25c-4.54,1.4-10.92,2.83-18.61,2.91
	c-10.07,0.09-18.15-2.18-23.26-4.07c3.16-2.85,11.15-10.83,13.96-23.84c0.79-3.67,4.06-18.85-5.82-32.57
	C99.26,23.45,87.68,7.84,71.42,8.65c-21.95,1.1-40.06,31.44-33.15,54.09c3.43,11.21,12.18,17.91,16.87,20.94
	c-2.1,2.45-7.6,8.23-16.87,11.05C28.53,97.69,20.36,95.66,17.32,94.73z"/>
<path class="st0" d="M73.71,27.48c-7.21-0.68-13.63,7.69-15.36,14.64c-2.35,9.41,2.85,20.3,13.18,27.07
	c9.38-5.25,15.11-14.25,14.64-23.42C85.77,38.42,81.24,28.19,73.71,27.48z"/>
<path class="st0" d="M152.77,50.94c-4.28-0.84-9.97,5.29-10.42,11.52c-0.42,5.82,3.72,11.73,10.42,14.27
	c1.19-1.15,6.18-6.25,6.04-13.72C158.73,58.63,156.84,51.74,152.77,50.94z"/>
<path class="st0" d="M218.82,28.78c-6.7-0.63-12.66,7.14-14.27,13.59c-2.19,8.74,2.65,18.85,12.23,25.14
	c8.71-4.88,14.03-13.23,13.59-21.75C230.01,38.94,225.82,29.44,218.82,28.78z"/>
<path class="st0" d="M286.52,50.22c-5.17-0.79-10.06,4.36-11.06,9.54c-1.17,6.1,2.84,13.17,9.95,15.5
	c6.77-3.71,10.22-10.78,8.85-16.69C293.45,55.02,290.64,50.85,286.52,50.22z"/>
<path class="st0" d="M354.33,31.63c-6.33-0.59-11.94,6.74-13.46,12.83c-2.06,8.25,2.5,17.78,11.54,23.72
	c8.22-4.61,13.24-12.48,12.83-20.52C364.9,41.21,360.94,32.25,354.33,31.63z"/>
<path class="st0" d="M431.78,52.35c-3.84-0.76-8.95,4.76-9.35,10.34c-0.38,5.22,3.34,10.53,9.35,12.8c1.07-1.03,5.55-5.6,5.41-12.31
	C437.11,59.25,435.41,53.06,431.78,52.35z"/>
<path class="st0" d="M503.4,33.62c-6.09-0.57-11.51,6.49-12.97,12.35c-1.99,7.94,2.41,17.14,11.13,22.86
	c7.92-4.43,12.76-12.03,12.35-19.77C513.59,42.86,509.77,34.22,503.4,33.62z"/>
<path class="st0" d="M577.78,58.32c-3.3-0.65-7.66,4.07-8.01,8.86c-0.32,4.47,2.86,9.01,8.01,10.97c0.91-0.89,4.76-4.8,4.64-10.54
	C582.35,64.23,580.9,58.93,577.78,58.32z"/>
<path class="st0" d="M651.44,36.95c-6.09-0.57-11.51,6.49-12.97,12.35c-1.99,7.94,2.41,17.14,11.13,22.86
	c7.92-4.43,12.76-12.03,12.35-19.77C661.62,46.18,657.8,37.55,651.44,36.95z"/>
<path class="st0" d="M735.96,55.48c-3.3-0.65-7.66,4.07-8.01,8.86c-0.32,4.47,2.86,9.01,8.01,10.97c0.91-0.89,4.76-4.8,4.64-10.54
	C740.54,61.39,739.09,56.09,735.96,55.48z"/>
<path class="st0" d="M821.76,35.27c-6.09-0.57-11.51,6.49-12.97,12.35c-1.99,7.94,2.41,17.14,11.13,22.86
	c7.92-4.43,12.76-12.03,12.35-19.77C831.95,44.5,828.13,35.87,821.76,35.27z"/>
</svg>
