
<svg version="1.1" id="Capa_1" xmlns="http://www.w3.org/2000/svg" xmlns:xlink="http://www.w3.org/1999/xlink" x="0px" y="0px"
	 viewBox="0 0 900 120" style="enable-background:new 0 0 900 120;" xml:space="preserve">
<style type="text/css">
	.st0{fill:#FFFFFF;stroke:#1D1D1B;stroke-miterlimit:10;}
</style>
<path class="st0" d="M22.12,14.02c34,17.96,59.94,19.14,77.64,16.68c27.97-3.89,54.06-18.64,90.29-17.83
	c32.57,0.73,40.68,12.41,61.09,18.15c9.53,2.68,16.99,2.87,23.45,3.12c35.03,1.36,65.51-16.43,93.74-20.7
	c4.94-0.75,12.63-0.74,22.72,0.32c11.24,1.18,19.4,3.86,22.38,4.78c20.46,6.34,48.75,12.17,59.64,13.77
	c42.43,6.22,46.01-18.73,86.4-12.96c27.2,3.89,30.6,15.92,63.72,18.36c19.74,1.45,35.7-1.56,44.28-3.24
	c34.97-6.84,37.39-17.58,59.4-20.52c34.26-4.58,44.51,20.02,83.16,22.68c29.5,2.03,54.96-8.6,73.44-19.44c-0.72,27-1.44,54-2.16,81
	c-13.34,7.53-34.85,17.17-61.56,17.28c-36.1,0.15-45.61-17.26-84.24-17.28c-16.55-0.01-20.82,3.2-35.38,6.96
	c-9.07,2.34-17.52,4-34.82,6c-16.87,1.95-25.3,2.93-35.64,2.16c-27.6-2.05-33.65-13.35-68.04-17.28c-4.39-0.5-9.87-1.11-17.28-1.08
	c-35.8,0.14-41.88,14.84-73.44,15.12c-4.61,0.04-22.48,0.2-38.77-5.14c-1.9-0.62-6.38-2.1-12.9-3.95
	c-5.59-1.59-12.13-3.13-20.12-4.5c-9.52-1.62-17.75-3.64-27.91-3.09c-35.52,1.92-57.94,25.73-96.62,20.13
	c-14.96-2.17-25.55-5.64-25.55-5.64c-17.1-5.61-22.73-11.38-38.36-15.03c-9.93-2.32-17.66-2.33-23.51-2.34
	c-35.82-0.03-58.05,18.25-82.24,23c-18.33,3.6-45.45,0.93-83.39-27.6C21.73,61.94,21.92,37.98,22.12,14.02z"/>
</svg>
