
<svg version="1.1" id="Capa_1" xmlns="http://www.w3.org/2000/svg" xmlns:xlink="http://www.w3.org/1999/xlink" x="0px" y="0px"
	 viewBox="0 0 900 120" style="enable-background:new 0 0 900 120;" xml:space="preserve">
<style type="text/css">
	.st0{fill:#FFFFFF;stroke:#1D1D1B;stroke-miterlimit:10;}
</style>
<path class="st0" d="M10.85,8.55c30.25,20.98,54.69,24.79,71.56,24.3C122.09,31.7,139.27,6.23,190.02,7.3
	c8.83,0.19,23.34,0.5,41.03,6.19c18.03,5.8,20.54,11.12,42.58,19.35c14.03,5.24,26.5,9.9,43.36,10.07
	c17.92,0.18,31.81-4.78,41.8-8.52c4.92-1.84,8.73-3.55,11.92-5.18c13.67-6.96,23.36-11.92,26.02-13.41
	c19.85-11.03,47.68-10.39,61.93-10.07c22.42,0.51,38.75,5.13,55.74,10.07c40.95,11.89,42.89,20.74,63.41,25.14
	C625.22,51.1,637.87,8.79,697.7,5.31c45.62-2.65,54.88,20.99,109.07,19.44c32.61-0.94,59.12-10.36,76.68-18.36
	c-0.36,25.56-0.72,51.12-1.08,76.68c-17.35,15.25-43.68,33.09-76.68,34.56c-46.03,2.04-59.01-29.83-107.99-33.48
	c-54.67-4.07-62.56,33.85-120.95,34.56c-61.81,0.75-63.61-41.65-121.95-40.96c-61.28,0.72-86.07,51.98-152.52,40.26
	c-24.33-4.29-45.68-13.16-45.68-13.16c-12.97-7.59-24.6-11.79-33-14.21c-11.64-3.36-21.1-4.46-29.16-5.4
	c-8.63-1.01-12.94-1.51-18.36-1.08c-13.8,1.09-23.68,7.15-28.08,9.72c-20.84,12.15-48.8,21.69-61.56,23.76
	c-16.18,2.62-40.09-1.56-73.44-32.4c-0.3-14.01-0.65-28.12-1.06-42.31C11.62,31.4,11.25,19.95,10.85,8.55z"/>
</svg>
