
<svg version="1.1" id="Capa_1" xmlns="http://www.w3.org/2000/svg" xmlns:xlink="http://www.w3.org/1999/xlink" x="0px" y="0px"
	 viewBox="0 0 900 120" style="enable-background:new 0 0 900 120;" xml:space="preserve">
<style type="text/css">
	.st0{fill:#FFFFFF;stroke:#1D1D1B;stroke-miterlimit:10;}
</style>
<path class="st0" d="M12.84,61.3c5.67,0.66,14.45,0.77,22.09-4.14C52.62,45.8,45.32,19.74,62.44,9.1c8.77-5.45,22.69-6.07,31.12,0
	c16.7,12.02,6.16,46.11,21,51.74c0.51,0.19,4.43,1.62,8.29,0c13.27-5.57,2.14-37.28,17.49-49.71c7.88-6.38,21.98-7.06,30.38-1.38
	c16.18,10.94,6.64,42.4,21.64,48.33c2.98,1.18,7.29,1.49,10.59-0.46c10.98-6.5-1.63-30.87,9.66-43.73
	c8.74-9.95,30.28-11.28,40.5-2.3c13.73,12.06,3.35,39.45,16.11,45.11c3.31,1.47,7.52,1.21,10.59-0.46
	c12.05-6.57,0.36-31.57,12.65-44.22c9.35-9.63,30.58-10.04,39.88-0.97c11.08,10.81-0.09,32.16,12.37,41.05
	c0.45,0.32,6.81,4.73,12.15,2.5c10.98-4.59,1.01-30.26,14.4-43.2c9.21-8.9,27.94-10.55,37.44-2.88
	c14.16,11.43,4.23,40.68,16.56,45.36c4.05,1.54,8.14-0.47,8.64-0.72c11.88-6.03,1.97-29.54,13.68-41.76
	c9.03-9.42,29.52-10.67,39.6-2.16c14.08,11.88,3.83,39.36,18,46.08c0.7,0.33,5.17,2.45,9.36,0.72c11.62-4.81,1.85-31.32,15.12-43.92
	c9.72-9.23,30.39-9.65,40.32-0.72c13.86,12.47,4.59,41.18,16.56,45.36c2.76,0.96,5.31,0.15,5.76,0c12.08-4.06,3.61-31.8,17.28-44.64
	c10.19-9.58,31.76-10,42.48-0.72c14.93,12.91,6.27,42.4,19.44,46.8c2.99,1,5.69,0.23,6.48,0c13.78-4.08,7.16-31.86,22.32-44.64
	c10.81-9.11,31.49-9.58,41.76-0.72c14.65,12.65,5.83,42.35,18.72,46.8c2.6,0.9,4.92,0.36,6.48,0c17.03-3.95,12.7-34.68,31.68-46.8
	c9.35-5.97,23.54-6.91,33.12-1.44c16.63,9.5,9.05,34.54,25.92,46.8c9.16,6.66,20.98,6.38,30.24,4.8
	c0.05,16.67,0.09,33.35,0.14,50.02c-24.42,7.69-35.2,4.22-40.46-0.82c-9.44-9.05-6.6-28.45-19.15-41.45
	c-2.51-2.6-5.68-4.99-9.72-5.4c-2.6-0.26-6.55,0.2-11.88,4.32c-17.08,13.22-14.43,37.89-28.08,43.2c-4.82,1.87-10.8,2.16-10.8,2.16
	c-4.53,0.28-8.71-0.42-10.8-1.08c-14.52-4.58-14.27-37.52-27.66-44.23c-5.27-2.64-10.8-2.88-10.8-2.88c-0.01,0-6.22,0.57-7.2,0.72
	c-10.44,1.64-13.77,47.59-24.92,49c-1.6,0.2-3.01-0.55-10.36-0.76c-4.17-0.11-5.23,0.15-6.24,0c-10.03-1.47-15.87-40.4-29.76-44.64
	c-4.65-1.42-9.36-0.72-9.36-0.72s-4.12,0.61-7.92,2.88c-12.38,7.4-14.83,38.57-24.96,41.04c-3.62,0.88-8.16,0.72-8.16,0.72
	s-3.22-0.12-5.76-0.72c-10.61-2.52-21.56-43.46-26.64-44.64c-3.11-0.72-6.48-0.72-6.48-0.72c0,0,0,0,0,0c-0.02,0-3.82-0.04-7.2,0.72
	c-10.15,2.28-18.34,36.51-28.08,43.2c-2.9,1.99-6.48,2.16-6.48,2.16c-0.62,0.1-3.46,0.54-7.2,0c0,0-3.95-0.57-7.2-2.16
	c-10.03-4.89-8.27-36.14-18-43.92c-3.12-2.49-6.48-2.88-6.48-2.88s-3.49-0.4-7.2,1.44c-11.25,5.58-12.86,41.61-25.2,44.64
	c-0.64,0.16-4.09,0.9-8.64,0.72c0,0,0,0,0,0s-4.47,0-8.64-1.44c-6.65-2.3-14.76-34.98-20.4-41.28c-2-2.23-4.32-2.88-4.32-2.88
	c-0.73-0.2-1.81-0.39-4.8,0c-3.12,0.41-5.75,1.28-6.72,1.44c-10.6,1.75-17.64,39.51-23.52,44.16c0,0-0.45,3.69-7.7,1.87c0,0,0,0,0,0
	l0,0c-5.54-0.69-9-0.31-10-0.4c-7.02-0.63-5.25-34.56-20.39-43.05c-2.49-1.4-4.9-1.8-6.32-1.94c0,0-4.61-0.39-9.35,2.03
	c-11.09,5.67-7.58,33.91-21.29,42.22c-6.23,3.78-15.45,3.09-21.4-0.49c-14.65-8.81-6.77-33.51-21.3-41.28
	c-5.18-2.77-12.68-3.11-17.95,0c-13.16,7.76-4.05,31.58-17.16,40.3c-6.47,4.3-16.89,3.97-23.34-0.49
	c-13.88-9.58-4.51-34.87-17.95-42.12c-4.55-2.45-10.75-2.33-15.19,0c-13.63,7.16-4.36,31.73-17.92,41.63
	c-8.26,6.03-22.74,4.99-31.12-1.46C88.25,98.56,96.68,74.63,83.26,68.2c-7.49-3.59-16.35,1.02-17.03,1.38
	c-15.16,8.13-8.95,30.24-22.76,40.66c-4.78,3.6-13.43,6.92-30.15,2.92C13.16,95.88,13,78.59,12.84,61.3z"/>
</svg>
