
<svg version="1.1" id="Capa_1" xmlns="http://www.w3.org/2000/svg" xmlns:xlink="http://www.w3.org/1999/xlink" x="0px" y="0px"
	 viewBox="0 0 900 120" style="enable-background:new 0 0 900 120;" xml:space="preserve">
<style type="text/css">
	.st0{fill:#FFFFFF;stroke:#1D1D1B;stroke-miterlimit:10;}
</style>
<path class="st0" d="M12.94,58.35c9.73-22.79,35.95-54.32,72.4-50.04c28.85,3.39,53.44,27.75,58.75,59.88
	c-0.42-34.57,28.53-62.1,61.03-60.64c30.36,1.37,55.76,27.66,55.7,59.88c-0.59-31.81,25.24-58.16,56.46-58.37
	c31.8-0.22,58.25,26.75,57.22,59.13C373.65,36,398.98,8.97,430.29,7.55c32.37-1.46,60.63,24.93,61.14,58.24
	c9.68-35.57,38.54-58.56,64.8-57.24c29,1.46,52.67,32.48,52.92,32.84c0.69,0.97,1.32,1.96,1.32,1.96c0,0,0,0,0,0
	c6.09,9.46,8.51,18.75,9.54,25.72c4.8-34.12,33.79-60.04,68.12-61.2c33.67-1.13,63.92,21.84,71.74,54.72
	c13.88-32.63,40.99-55.66,67.39-55.44c37.56,0.32,79.74,47.76,70.29,111.6c-9.9-0.24-19.81-0.48-29.71-0.72
	c0.64-26.3-17.15-47.77-37.75-51.17c-25.11-4.14-54.16,18.61-54.28,51.89c-10.63,0-21.26,0-31.89,0c0.66-29.75-24.01-54.4-53.62-54
	c-29.36,0.39-53.24,25.24-52.18,54.72c-11.35,0.24-22.71,0.48-34.06,0.72c-0.1-2.87-1.61-31.22-25.36-46.08
	c-3.08-1.93-16.62-10.54-32.77-7.45c-20.12,3.85-36.52,24.37-39.39,50.96c-12.01,0.22-24.02,0.45-36.03,0.67
	c2.77-29.13-17.11-52.25-36.87-54.12c-21.99-2.08-48.67,21.64-46.09,54.96c-10.06-0.28-20.11-0.56-30.17-0.84
	c2.58-27.69-16.57-49.85-36.04-51.63c-21.66-1.98-47,20.94-44.42,52.46c-11.65-0.14-23.31-0.28-34.96-0.42
	c3.17-28.53-16.29-51.66-36.27-53.71c-22.11-2.27-48.36,20.92-46.09,53.29c-12.14,0.14-24.29,0.28-36.43,0.42
	c1.82-31.09-24.19-54.33-48.6-51.84c-21.32,2.18-40.43,23.89-39.01,50.58c-8.38-0.28-16.76-0.56-25.14-0.84
	C7.91,108.24,1.93,84.12,12.94,58.35z"/>
</svg>
